mtllib imu_v3.mtl
usemtl imu_v3
v -1.0 -1.0 -0.03999999910593033
v -1.0 1.0 -0.03999999910593033
v 1.0 1.0 -0.03999999910593033
v 1.0 -1.0 -0.03999999910593033
v 1.0 1.0 -0.03999999910593033
v -1.0 1.0 -0.03999999910593033
v -1.0 1.0 0.03999999910593033
v 1.0 1.0 0.03999999910593033
v -1.0 -1.0 0.03999999910593033
v -1.0 1.0 0.03999999910593033
v -1.0 1.0 -0.03999999910593033
v -1.0 -1.0 -0.03999999910593033
v 1.0 -1.0 -0.03999999910593033
v 1.0 1.0 -0.03999999910593033
v 1.0 1.0 0.03999999910593033
v 1.0 -1.0 0.03999999910593033
v -1.0 1.0 0.03999999910593033
v -1.0 -1.0 0.03999999910593033
v 1.0 -1.0 0.03999999910593033
v 1.0 1.0 0.03999999910593033
v 1.0 -1.0 0.03999999910593033
v -1.0 -1.0 0.03999999910593033
v -1.0 -1.0 -0.03999999910593033
v 1.0 -1.0 -0.03999999910593033
v 0.4000000059604645 -0.9000000357627869 0.03999999910593033
v 0.4000000059604645 -0.800000011920929 0.03999999910593033
v 0.6000000238418579 -0.800000011920929 0.03999999910593033
v 0.6000000238418579 -0.9000000357627869 0.03999999910593033
v 0.6000000238418579 -0.800000011920929 0.03999999910593033
v 0.4000000059604645 -0.800000011920929 0.03999999910593033
v 0.4000000059604645 -0.800000011920929 0.07500000298023224
v 0.6000000238418579 -0.800000011920929 0.07500000298023224
v 0.4000000059604645 -0.9000000357627869 0.07500000298023224
v 0.4000000059604645 -0.800000011920929 0.07500000298023224
v 0.4000000059604645 -0.800000011920929 0.03999999910593033
v 0.4000000059604645 -0.9000000357627869 0.03999999910593033
v 0.6000000238418579 -0.9000000357627869 0.03999999910593033
v 0.6000000238418579 -0.800000011920929 0.03999999910593033
v 0.6000000238418579 -0.800000011920929 0.07500000298023224
v 0.6000000238418579 -0.9000000357627869 0.07500000298023224
v 0.4000000059604645 -0.800000011920929 0.07500000298023224
v 0.4000000059604645 -0.9000000357627869 0.07500000298023224
v 0.6000000238418579 -0.9000000357627869 0.07500000298023224
v 0.6000000238418579 -0.800000011920929 0.07500000298023224
v 0.6000000238418579 -0.9000000357627869 0.07500000298023224
v 0.4000000059604645 -0.9000000357627869 0.07500000298023224
v 0.4000000059604645 -0.9000000357627869 0.03999999910593033
v 0.6000000238418579 -0.9000000357627869 0.03999999910593033
v -1.0 -0.5 0.06499999761581421
v -1.0 0.5 0.06499999761581421
v -0.75 0.5 0.06499999761581421
v -0.75 -0.5 0.06499999761581421
v -0.75 0.5 0.06499999761581421
v -1.0 0.5 0.06499999761581421
v -1.0 0.5 0.3149999976158142
v -0.75 0.5 0.3149999976158142
v -1.0 -0.5 0.3149999976158142
v -1.0 0.5 0.3149999976158142
v -1.0 0.5 0.06499999761581421
v -1.0 -0.5 0.06499999761581421
v -0.75 -0.5 0.06499999761581421
v -0.75 0.5 0.06499999761581421
v -0.75 0.5 0.3149999976158142
v -0.75 -0.5 0.3149999976158142
v -1.0 0.5 0.3149999976158142
v -1.0 -0.5 0.3149999976158142
v -0.75 -0.5 0.3149999976158142
v -0.75 0.5 0.3149999976158142
v -0.75 -0.5 0.3149999976158142
v -1.0 -0.5 0.3149999976158142
v -1.0 -0.5 0.06499999761581421
v -0.75 -0.5 0.06499999761581421

vn 0.0 0.0 -1.0
vn 0.0 0.0 -1.0
vn 0.0 0.0 -1.0
vn 0.0 0.0 -1.0
vn 0.0 1.0 0.0
vn 0.0 1.0 0.0
vn 0.0 1.0 0.0
vn 0.0 1.0 0.0
vn -1.0 0.0 0.0
vn -1.0 0.0 0.0
vn -1.0 0.0 0.0
vn -1.0 0.0 0.0
vn 1.0 0.0 0.0
vn 1.0 0.0 0.0
vn 1.0 0.0 0.0
vn 1.0 0.0 0.0
vn 0.0 0.0 1.0
vn 0.0 0.0 1.0
vn 0.0 0.0 1.0
vn 0.0 0.0 1.0
vn 0.0 -1.0 0.0
vn 0.0 -1.0 0.0
vn 0.0 -1.0 0.0
vn 0.0 -1.0 0.0
vn 0.0 0.0 -1.0
vn 0.0 0.0 -1.0
vn 0.0 0.0 -1.0
vn 0.0 0.0 -1.0
vn 0.0 1.0 0.0
vn 0.0 1.0 0.0
vn 0.0 1.0 0.0
vn 0.0 1.0 0.0
vn -1.0 0.0 0.0
vn -1.0 0.0 0.0
vn -1.0 0.0 0.0
vn -1.0 0.0 0.0
vn 1.0 0.0 0.0
vn 1.0 0.0 0.0
vn 1.0 0.0 0.0
vn 1.0 0.0 0.0
vn 0.0 0.0 1.0
vn 0.0 0.0 1.0
vn 0.0 0.0 1.0
vn 0.0 0.0 1.0
vn 0.0 -1.0 0.0
vn 0.0 -1.0 0.0
vn 0.0 -1.0 0.0
vn 0.0 -1.0 0.0
vn 0.0 0.0 -1.0
vn 0.0 0.0 -1.0
vn 0.0 0.0 -1.0
vn 0.0 0.0 -1.0
vn 0.0 1.0 0.0
vn 0.0 1.0 0.0
vn 0.0 1.0 0.0
vn 0.0 1.0 0.0
vn -1.0 0.0 0.0
vn -1.0 0.0 0.0
vn -1.0 0.0 0.0
vn -1.0 0.0 0.0
vn 1.0 0.0 0.0
vn 1.0 0.0 0.0
vn 1.0 0.0 0.0
vn 1.0 0.0 0.0
vn 0.0 0.0 1.0
vn 0.0 0.0 1.0
vn 0.0 0.0 1.0
vn 0.0 0.0 1.0
vn 0.0 -1.0 0.0
vn 0.0 -1.0 0.0
vn 0.0 -1.0 0.0
vn 0.0 -1.0 0.0

vt 0.16666666666666666 0.5
vt 0.16666666666666666 0.5
vt 0.16666666666666666 0.5
vt 0.16666666666666666 0.5
vt 0.16666666666666666 0.5
vt 0.16666666666666666 0.5
vt 0.16666666666666666 0.5
vt 0.16666666666666666 0.5
vt 0.16666666666666666 0.5
vt 0.16666666666666666 0.5
vt 0.16666666666666666 0.5
vt 0.16666666666666666 0.5
vt 0.16666666666666666 0.5
vt 0.16666666666666666 0.5
vt 0.16666666666666666 0.5
vt 0.16666666666666666 0.5
vt 0.16666666666666666 0.5
vt 0.16666666666666666 0.5
vt 0.16666666666666666 0.5
vt 0.16666666666666666 0.5
vt 0.16666666666666666 0.5
vt 0.16666666666666666 0.5
vt 0.16666666666666666 0.5
vt 0.16666666666666666 0.5
vt 0.5 0.5
vt 0.5 0.5
vt 0.5 0.5
vt 0.5 0.5
vt 0.5 0.5
vt 0.5 0.5
vt 0.5 0.5
vt 0.5 0.5
vt 0.5 0.5
vt 0.5 0.5
vt 0.5 0.5
vt 0.5 0.5
vt 0.5 0.5
vt 0.5 0.5
vt 0.5 0.5
vt 0.5 0.5
vt 0.5 0.5
vt 0.5 0.5
vt 0.5 0.5
vt 0.5 0.5
vt 0.5 0.5
vt 0.5 0.5
vt 0.5 0.5
vt 0.5 0.5
vt 0.8333333333333334 0.5
vt 0.8333333333333334 0.5
vt 0.8333333333333334 0.5
vt 0.8333333333333334 0.5
vt 0.8333333333333334 0.5
vt 0.8333333333333334 0.5
vt 0.8333333333333334 0.5
vt 0.8333333333333334 0.5
vt 0.8333333333333334 0.5
vt 0.8333333333333334 0.5
vt 0.8333333333333334 0.5
vt 0.8333333333333334 0.5
vt 0.8333333333333334 0.5
vt 0.8333333333333334 0.5
vt 0.8333333333333334 0.5
vt 0.8333333333333334 0.5
vt 0.8333333333333334 0.5
vt 0.8333333333333334 0.5
vt 0.8333333333333334 0.5
vt 0.8333333333333334 0.5
vt 0.8333333333333334 0.5
vt 0.8333333333333334 0.5
vt 0.8333333333333334 0.5
vt 0.8333333333333334 0.5

f 1/1/1 2/2/2 4/4/4
f 4/4/4 2/2/2 3/3/3
f 5/5/5 6/6/6 8/8/8
f 8/8/8 6/6/6 7/7/7
f 9/9/9 10/10/10 12/12/12
f 12/12/12 10/10/10 11/11/11
f 13/13/13 14/14/14 16/16/16
f 16/16/16 14/14/14 15/15/15
f 17/17/17 18/18/18 20/20/20
f 20/20/20 18/18/18 19/19/19
f 21/21/21 22/22/22 24/24/24
f 24/24/24 22/22/22 23/23/23
f 25/25/25 26/26/26 28/28/28
f 28/28/28 26/26/26 27/27/27
f 29/29/29 30/30/30 32/32/32
f 32/32/32 30/30/30 31/31/31
f 33/33/33 34/34/34 36/36/36
f 36/36/36 34/34/34 35/35/35
f 37/37/37 38/38/38 40/40/40
f 40/40/40 38/38/38 39/39/39
f 41/41/41 42/42/42 44/44/44
f 44/44/44 42/42/42 43/43/43
f 45/45/45 46/46/46 48/48/48
f 48/48/48 46/46/46 47/47/47
f 49/49/49 50/50/50 52/52/52
f 52/52/52 50/50/50 51/51/51
f 53/53/53 54/54/54 56/56/56
f 56/56/56 54/54/54 55/55/55
f 57/57/57 58/58/58 60/60/60
f 60/60/60 58/58/58 59/59/59
f 61/61/61 62/62/62 64/64/64
f 64/64/64 62/62/62 63/63/63
f 65/65/65 66/66/66 68/68/68
f 68/68/68 66/66/66 67/67/67
f 69/69/69 70/70/70 72/72/72
f 72/72/72 70/70/70 71/71/71
